<?xml version="1.0" encoding="UTF-8" standalone="no"?>
<!-- Created with Inkscape (http://www.inkscape.org/) -->

<svg
   xmlns:dc="http://purl.org/dc/elements/1.1/"
   xmlns:cc="http://creativecommons.org/ns#"
   xmlns:rdf="http://www.w3.org/1999/02/22-rdf-syntax-ns#"
   xmlns:svg="http://www.w3.org/2000/svg"
   xmlns="http://www.w3.org/2000/svg"
   xmlns:sodipodi="http://sodipodi.sourceforge.net/DTD/sodipodi-0.dtd"
   xmlns:inkscape="http://www.inkscape.org/namespaces/inkscape"
   id="svg3336"
   version="1.1"
   inkscape:version="0.91 r13725"
   xml:space="preserve"
   width="530.60406"
   height="403.49911"
   viewBox="0 0 530.60406 403.49911"
   sodipodi:docname="thinwhite.svg"><metadata
     id="metadata3342"><rdf:RDF><cc:Work
         rdf:about=""><dc:format>image/svg+xml</dc:format><dc:type
           rdf:resource="http://purl.org/dc/dcmitype/StillImage" /><dc:title></dc:title></cc:Work></rdf:RDF></metadata><defs
     id="defs3340"><clipPath
       clipPathUnits="userSpaceOnUse"
       id="clipPath3350"><path
         d="m 0,1190.55 1190.55,0 L 1190.55,0 0,0 0,1190.55 Z"
         id="path3352"
         inkscape:connector-curvature="0" /></clipPath></defs><sodipodi:namedview
     pagecolor="#ffffff"
     bordercolor="#666666"
     borderopacity="1"
     objecttolerance="10"
     gridtolerance="10"
     guidetolerance="10"
     inkscape:pageopacity="0"
     inkscape:pageshadow="2"
     inkscape:window-width="1280"
     inkscape:window-height="961"
     id="namedview3338"
     showgrid="false"
     borderlayer="false"
     fit-margin-top="0"
     fit-margin-left="0"
     fit-margin-right="0"
     fit-margin-bottom="0"
     inkscape:zoom="0.37764059"
     inkscape:cx="744.59375"
     inkscape:cy="-341.09469"
     inkscape:window-x="-8"
     inkscape:window-y="-8"
     inkscape:window-maximized="1"
     inkscape:current-layer="g3344" /><g
     id="g3344"
     inkscape:groupmode="layer"
     inkscape:label="thinwhite"
     transform="matrix(1.25,0,0,-1.25,0.50000001,1488.6876)"><g
       id="g3346"
       transform="translate(1.0368326,-2.1184164)"><g
         id="g3348"
         clip-path="url(#clipPath3350)"
         transform="translate(-383.43336,432.15694)"><g
           id="g3354"
           transform="translate(752.4004,566.96)"><path
             d="M 0,0 C -2.391,0.241 -6.01,4.945 -7.681,6.306 -33.17,27.064 -53.042,32.163 -78.9,53.04 c -3.211,-2.469 -7.095,8.311 -11.821,13.2 -12.011,21.66 -31.566,39.819 -62.639,42.48 -34.537,2.958 -61.991,-18.98 -75.982,-38.018 -7.893,6.347 -5.585,-10.881 -13.407,-4.462 -22.54,-24.275 -44.522,-27.646 -67.091,-52.2 -1.41,-1.533 -8.029,-1.647 -9.993,-2.5 -2.089,55.333 17.712,96.575 43.833,125.26 12.827,14.087 28.81,26.367 47.28,35.04 18.993,8.918 40.17,14.376 66.48,15.6 25.712,1.196 50.696,-5.543 68.399,-13.44 19.3,-8.609 34.866,-19.746 48.24,-33.12 C -32.065,127.345 -20.306,111.592 -12,93.12 -1.785,70.4 3.848,31.996 0,0"
             style="fill:#3ca9fc;fill-opacity:1;fill-rule:evenodd;stroke:none"
             id="path3356"
             inkscape:connector-curvature="0" /></g><g
           id="g3358"
           transform="translate(752.4004,566.96)"><path
             d="M 0,0 C -2.391,0.241 -6.01,4.945 -7.681,6.306 -33.17,27.064 -53.042,32.163 -78.9,53.04 c -3.211,-2.469 -7.095,8.311 -11.821,13.2 -12.011,21.66 -31.566,39.819 -62.639,42.48 -34.537,2.958 -61.991,-18.98 -75.982,-38.018 -7.893,6.347 -5.585,-10.881 -13.407,-4.462 -22.54,-24.275 -44.522,-27.646 -67.091,-52.2 -1.41,-1.533 -8.029,-1.647 -9.993,-2.5 -2.089,55.333 17.712,96.575 43.833,125.26 12.827,14.087 28.81,26.367 47.28,35.04 18.993,8.918 40.17,14.376 66.48,15.6 25.712,1.196 50.696,-5.543 68.399,-13.44 19.3,-8.609 34.866,-19.746 48.24,-33.12 C -32.065,127.345 -20.306,111.592 -12,93.12 -1.785,70.4 3.848,31.996 0,0 Z"
             style="fill:none;stroke:#ffffff;stroke-width:7;stroke-linecap:butt;stroke-linejoin:miter;stroke-miterlimit:10;stroke-dasharray:none;stroke-opacity:1"
             id="path3360"
             inkscape:connector-curvature="0" /></g><g
           id="g3362"
           transform="translate(657.1201,628.3999)"><path
             d="m 0,0 c -16.24,-18 -33.546,-34.935 -49.68,-53.04 -24.908,20.772 -49.71,41.651 -74.4,62.64 11.049,16.034 29.021,29.014 52.32,31.44 15.292,1.593 28.782,-1.931 39.6,-7.44 C -17.296,26.03 -6.807,13.596 0,0"
             style="fill:#fdbe0f;fill-opacity:1;fill-rule:evenodd;stroke:none"
             id="path3364"
             inkscape:connector-curvature="0" /></g><g
           id="g3366"
           transform="translate(657.1201,628.3999)"><path
             d="m 0,0 c -16.24,-18 -33.546,-34.935 -49.68,-53.04 -24.908,20.772 -49.71,41.651 -74.4,62.64 11.049,16.034 29.021,29.014 52.32,31.44 15.292,1.593 28.782,-1.931 39.6,-7.44 C -17.296,26.03 -6.807,13.596 0,0 Z"
             style="fill:none;stroke:#fcb912;stroke-width:7;stroke-linecap:butt;stroke-linejoin:miter;stroke-miterlimit:10;stroke-dasharray:none;stroke-opacity:1"
             id="path3368"
             inkscape:connector-curvature="0" /></g><g
           id="g3370"
           transform="translate(505.4399,652.3999)"><path
             d="m 0,0 c 32.534,-26.905 93.468,-79.72 125.894,-106.733 -6.071,-7.118 -16.17,11.245 -22.667,4.373 -8.36,-8.844 -15.066,-16.64 -24,-26.373 -1.612,-1.757 15.333,-6.867 -33.387,-6.867 l -12.48,0 -86.4,0 c -3.881,6.822 -8.997,15.986 -11.04,24 -0.348,1.364 -0.103,1.415 -0.24,2.4 -2.644,6.409 -4.584,14.279 -6,22.32 -0.444,2.521 -1.532,5.906 -1.2,8.16 0.408,2.769 6.787,8.053 8.64,10.08 C -42.412,-46.252 -19.931,-21.402 0,0"
             style="fill:#9fa1ad;fill-opacity:1;fill-rule:evenodd;stroke:none"
             id="path3372"
             inkscape:connector-curvature="0" /></g><g
           id="g3374"
           transform="translate(505.4399,652.3999)"><path
             d="m 0,0 c 32.534,-26.905 93.468,-79.72 125.894,-106.733 -6.071,-7.118 -16.17,11.245 -22.667,4.373 -8.36,-8.844 -15.066,-16.64 -24,-26.373 -1.612,-1.757 15.333,-6.867 -33.387,-6.867 l -12.48,0 -86.4,0 c -3.881,6.822 -8.997,15.986 -11.04,24 -0.348,1.364 -0.103,1.415 -0.24,2.4 -2.644,6.409 -4.584,14.279 -6,22.32 -0.444,2.521 -1.532,5.906 -1.2,8.16 0.408,2.769 6.787,8.053 8.64,10.08 C -42.412,-46.252 -19.931,-21.402 0,0 Z"
             style="fill:none;stroke:#ffffff;stroke-width:7;stroke-linecap:butt;stroke-linejoin:miter;stroke-miterlimit:10;stroke-dasharray:none;stroke-opacity:1"
             id="path3376"
             inkscape:connector-curvature="0" /></g><g
           id="g3378"
           transform="translate(671.04,633.2002)"><path
             d="m 0,0 c 27.214,-21.986 54.355,-44.045 81.36,-66.24 -3.455,-19.106 -9.287,-35.833 -17.52,-50.16 l -162.72,0 c -3.391,0 -8.943,-0.777 -10.8,0 -1.077,0.45 -0.208,0.416 0.72,1.44 26.229,28.951 54.19,56.78 80.64,85.44 C -18.994,-19.415 -9.227,-9.872 0,0"
             style="fill:#9fa1ad;fill-opacity:1;fill-rule:evenodd;stroke:none"
             id="path3380"
             inkscape:connector-curvature="0" /></g><g
           id="g3382"
           transform="translate(671.04,633.2002)"><path
             d="m 0,0 c 27.214,-21.986 54.355,-44.045 81.36,-66.24 -3.455,-19.106 -9.287,-35.833 -17.52,-50.16 l -162.72,0 c -3.391,0 -8.943,-0.777 -10.8,0 -1.077,0.45 -0.208,0.416 0.72,1.44 26.229,28.951 54.19,56.78 80.64,85.44 C -18.994,-19.415 -9.227,-9.872 0,0 Z"
             style="fill:none;stroke:#ffffff;stroke-width:7;stroke-linecap:butt;stroke-linejoin:miter;stroke-miterlimit:10;stroke-dasharray:none;stroke-opacity:1"
             id="path3384"
             inkscape:connector-curvature="0" /></g><g
           id="g3386"
           transform="translate(472.5601,467.8398)"><path
             d="M 0,0 C -2.638,-6.445 1.242,-14.092 6.24,-16.56 16.495,-21.623 28.122,-11.176 24,-0.24 22.042,4.956 16.504,8.419 9.36,7.2 3.87,6.264 0.864,2.111 0,0 m 8.64,18.72 c 12.086,1.293 21.15,-5.131 24.72,-10.56 1.788,-2.719 3.344,-7.358 3.6,-10.08 1.517,-16.143 -10.276,-27.408 -25.2,-27.36 -14.696,0.048 -24.96,10.345 -24.96,24.96 0,12.613 9.837,21.757 21.84,23.04"
             style="fill:#ffffff;fill-opacity:1;fill-rule:evenodd;stroke:none"
             id="path3388"
             inkscape:connector-curvature="0" /></g><g
           id="g3390"
           transform="translate(384.2402,485.3604)"><path
             d="m 0,0 c 4.92,-0.925 9.581,1.263 13.44,0 1.623,-0.532 3.598,-4.598 4.56,-6 1.608,-2.347 3.056,-4.257 4.08,-6.24 3.572,3.547 5.652,8.587 9.12,12.24 l 13.68,0 c -3.787,-5.746 -8.086,-11.661 -12.48,-17.761 -1.367,-1.897 -3.682,-4.298 -4.08,-6 -0.741,-3.161 0,-7.253 0,-10.8 l 0,-10.799 -11.76,0 c -1.111,7.601 1.503,14.818 0,21.36 -0.378,1.643 -2.603,3.941 -4.08,6 C 8.332,-12.22 3.423,-5.487 0,0"
             style="fill:#ffffff;fill-opacity:1;fill-rule:evenodd;stroke:none"
             id="path3392"
             inkscape:connector-curvature="0" /></g><g
           id="g3394"
           transform="translate(578.3999,457.7598)"><path
             d="m 0,0 c 0.159,9.121 -0.318,18.879 0.24,27.601 l 11.52,0 0,-45.361 c -3.875,0.837 -7.566,-1.126 -11.28,0 -1.615,0.489 -4.523,5.112 -5.76,6.72 -5.289,6.884 -11.121,14.739 -16.32,20.88 l 0,-27.6 -11.76,0 c 0.16,15.04 -0.32,30.72 0.24,45.361 3.753,-0.837 7.401,1.119 11.04,0 1.583,-0.488 4.569,-5.187 5.76,-6.721 C -10.897,13.898 -5.22,6.103 0,0"
             style="fill:#ffffff;fill-opacity:1;fill-rule:evenodd;stroke:none"
             id="path3396"
             inkscape:connector-curvature="0" /></g><g
           id="g3398"
           transform="translate(639.5996,450.0801)"><path
             d="M 0,0 C 13.915,-2.995 20.083,13.675 12.48,21.6 9.721,24.477 5.69,25.231 0.24,25.2 -0.319,17.279 0.16,8.32 0,0 M -11.52,35.28 C 7.008,36.634 19.959,34.214 25.681,22.8 28.637,16.903 28.37,6.635 24.96,0.96 21.639,-4.567 15.236,-9.404 7.2,-10.08 c -5.567,-0.468 -11.912,0.345 -18.96,0 l 0,44.64 c -0.02,0.34 -0.039,0.679 0.24,0.72"
             style="fill:#ffffff;fill-opacity:1;fill-rule:evenodd;stroke:none"
             id="path3400"
             inkscape:connector-curvature="0" /></g><g
           id="g3402"
           transform="translate(728.6396,485.3604)"><path
             d="m 0,0 0,-10.08 -13.68,0 c -0.558,-2.002 -0.081,-5.039 -0.24,-7.441 l 13.2,0 0,-10.08 -13.2,0 0,-7.439 c 4.161,-0.56 9.36,-0.081 13.92,-0.24 l 0,-10.08 -25.68,0 C -25.52,-30.32 -26,-14.641 -25.439,0 L 0,0 Z"
             style="fill:#ffffff;fill-opacity:1;fill-rule:evenodd;stroke:none"
             id="path3404"
             inkscape:connector-curvature="0" /></g><g
           id="g3406"
           transform="translate(786.2402,473.8398)"><path
             d="m 0,0 c -1.436,2.083 -4.686,2.175 -8.4,2.4 l 0,-11.28 C -2.062,-10.022 3.41,-4.947 0,0 m 3.6,-15.12 c 3.564,-6.277 9.498,-12.261 13.679,-18.72 l -14.159,0 c -4.264,5.336 -7.401,11.799 -11.52,17.28 l 0,-17.28 -11.76,0 c 0.16,15.04 -0.32,30.72 0.24,45.361 11.083,-0.342 24.11,1.735 30,-4.561 6.023,-6.439 3.102,-21.347 -6.48,-22.08"
             style="fill:#ffffff;fill-opacity:1;fill-rule:evenodd;stroke:none"
             id="path3408"
             inkscape:connector-curvature="0" /></g><g
           id="g3410"
           transform="translate(452.3999,516.7998)"><path
             d="M 0,0 282.48,0"
             style="fill:#ffffff;fill-opacity:1;fill-rule:nonzero;stroke:#ffffff;stroke-width:7;stroke-linecap:butt;stroke-linejoin:miter;stroke-miterlimit:10;stroke-dasharray:none;stroke-opacity:1"
             id="path3412"
             inkscape:connector-curvature="0" /></g><g
           id="g3414"
           transform="translate(452.3999,516.7998)"><path
             d="M 0,0 C -3.375,6.059 -19.681,38.866 -19.68,66.48"
             style="fill:none;stroke:#ffffff;stroke-width:7;stroke-linecap:butt;stroke-linejoin:miter;stroke-miterlimit:10;stroke-dasharray:none;stroke-opacity:1"
             id="path3416"
             inkscape:connector-curvature="0" /></g><g
           id="g3418"
           transform="translate(734.8799,516.7998)"><path
             d="M 0,0 C 3.376,6.059 19.682,38.866 19.68,66.48"
             style="fill:none;stroke:#ffffff;stroke-width:7;stroke-linecap:butt;stroke-linejoin:miter;stroke-miterlimit:10;stroke-dasharray:none;stroke-opacity:1"
             id="path3420"
             inkscape:connector-curvature="0" /></g></g></g></g></svg>