<?xml version="1.0" encoding="UTF-8" standalone="no"?>
<!-- Created with Inkscape (http://www.inkscape.org/) -->

<svg
   xmlns:dc="http://purl.org/dc/elements/1.1/"
   xmlns:cc="http://creativecommons.org/ns#"
   xmlns:rdf="http://www.w3.org/1999/02/22-rdf-syntax-ns#"
   xmlns:svg="http://www.w3.org/2000/svg"
   xmlns="http://www.w3.org/2000/svg"
   xmlns:sodipodi="http://sodipodi.sourceforge.net/DTD/sodipodi-0.dtd"
   xmlns:inkscape="http://www.inkscape.org/namespaces/inkscape"
   id="svg3336"
   version="1.1"
   inkscape:version="0.91 r13725"
   xml:space="preserve"
   width="548.04871"
   height="70.691444"
   viewBox="0 0 548.0487 70.691444"
   sodipodi:docname="thinwhite-text.svg"><metadata
     id="metadata3342"><rdf:RDF><cc:Work
         rdf:about=""><dc:format>image/svg+xml</dc:format><dc:type
           rdf:resource="http://purl.org/dc/dcmitype/StillImage" /><dc:title></dc:title></cc:Work></rdf:RDF></metadata><defs
     id="defs3340"><clipPath
       clipPathUnits="userSpaceOnUse"
       id="clipPath3350"><path
         d="m 0,1190.55 1190.55,0 L 1190.55,0 0,0 0,1190.55 Z"
         id="path3352"
         inkscape:connector-curvature="0" /></clipPath></defs><sodipodi:namedview
     pagecolor="#ffffff"
     bordercolor="#666666"
     borderopacity="1"
     objecttolerance="10"
     gridtolerance="10"
     guidetolerance="10"
     inkscape:pageopacity="0"
     inkscape:pageshadow="2"
     inkscape:window-width="1280"
     inkscape:window-height="737"
     id="namedview3338"
     showgrid="false"
     borderlayer="false"
     fit-margin-top="0"
     fit-margin-left="0"
     fit-margin-right="0"
     fit-margin-bottom="0"
     inkscape:zoom="1.3155765"
     inkscape:cx="203.77447"
     inkscape:cy="107.79107"
     inkscape:window-x="1272"
     inkscape:window-y="-8"
     inkscape:window-maximized="1"
     inkscape:current-layer="g3344"
     inkscape:snap-intersection-paths="true"
     inkscape:snap-midpoints="true"
     showguides="false" /><g
     id="g3344"
     inkscape:groupmode="layer"
     inkscape:label="thinwhite"
     transform="matrix(1.25,0,0,-1.25,11.901845,1149.799)"><g
       id="g3386"
       transform="translate(90.163573,897.87832)"><path
         d="M 0,0 C -2.638,-6.445 1.242,-14.092 6.24,-16.56 16.495,-21.623 28.122,-11.176 24,-0.24 22.042,4.956 16.504,8.419 9.36,7.2 3.87,6.264 0.864,2.111 0,0 m 8.64,18.72 c 12.086,1.293 21.15,-5.131 24.72,-10.56 1.788,-2.719 3.344,-7.358 3.6,-10.08 1.517,-16.143 -10.276,-27.408 -25.2,-27.36 -14.696,0.048 -24.96,10.345 -24.96,24.96 0,12.613 9.837,21.757 21.84,23.04"
         style="fill:#ffffff;fill-opacity:1;fill-rule:evenodd;stroke:none"
         id="path3388"
         inkscape:connector-curvature="0" /></g><g
       id="g3390"
       transform="translate(1.8436726,915.39892)"><path
         d="m 0,0 c 4.92,-0.925 9.581,1.263 13.44,0 1.623,-0.532 3.598,-4.598 4.56,-6 1.608,-2.347 3.056,-4.257 4.08,-6.24 3.572,3.547 5.652,8.587 9.12,12.24 l 13.68,0 c -3.787,-5.746 -8.086,-11.661 -12.48,-17.761 -1.367,-1.897 -3.682,-4.298 -4.08,-6 -0.741,-3.161 0,-7.253 0,-10.8 l 0,-10.799 -11.76,0 c -1.111,7.601 1.503,14.818 0,21.36 -0.378,1.643 -2.603,3.941 -4.08,6 C 8.332,-12.22 3.423,-5.487 0,0"
         style="fill:#ffffff;fill-opacity:1;fill-rule:evenodd;stroke:none"
         id="path3392"
         inkscape:connector-curvature="0" /></g><g
       id="g3394"
       transform="translate(196.00337,887.79832)"><path
         d="m 0,0 c 0.159,9.121 -0.318,18.879 0.24,27.601 l 11.52,0 0,-45.361 c -3.875,0.837 -7.566,-1.126 -11.28,0 -1.615,0.489 -4.523,5.112 -5.76,6.72 -5.289,6.884 -11.121,14.739 -16.32,20.88 l 0,-27.6 -11.76,0 c 0.16,15.04 -0.32,30.72 0.24,45.361 3.753,-0.837 7.401,1.119 11.04,0 1.583,-0.488 4.569,-5.187 5.76,-6.721 C -10.897,13.898 -5.22,6.103 0,0"
         style="fill:#ffffff;fill-opacity:1;fill-rule:evenodd;stroke:none"
         id="path3396"
         inkscape:connector-curvature="0" /></g><g
       id="g3398"
       transform="translate(257.20307,880.11862)"><path
         d="M 0,0 C 13.915,-2.995 20.083,13.675 12.48,21.6 9.721,24.477 5.69,25.231 0.24,25.2 -0.319,17.279 0.16,8.32 0,0 M -11.52,35.28 C 7.008,36.634 19.959,34.214 25.681,22.8 28.637,16.903 28.37,6.635 24.96,0.96 21.639,-4.567 15.236,-9.404 7.2,-10.08 c -5.567,-0.468 -11.912,0.345 -18.96,0 l 0,44.64 c -0.02,0.34 -0.039,0.679 0.24,0.72"
         style="fill:#ffffff;fill-opacity:1;fill-rule:evenodd;stroke:none"
         id="path3400"
         inkscape:connector-curvature="0" /></g><g
       id="g3402"
       transform="translate(346.24307,915.39892)"><path
         d="m 0,0 0,-10.08 -13.68,0 c -0.558,-2.002 -0.081,-5.039 -0.24,-7.441 l 13.2,0 0,-10.08 -13.2,0 0,-7.439 c 4.161,-0.56 9.36,-0.081 13.92,-0.24 l 0,-10.08 -25.68,0 C -25.52,-30.32 -26,-14.641 -25.439,0 L 0,0 Z"
         style="fill:#ffffff;fill-opacity:1;fill-rule:evenodd;stroke:none"
         id="path3404"
         inkscape:connector-curvature="0" /></g><g
       id="g3406"
       transform="translate(403.84367,903.87832)"><path
         d="m 0,0 c -1.436,2.083 -4.686,2.175 -8.4,2.4 l 0,-11.28 C -2.062,-10.022 3.41,-4.947 0,0 m 3.6,-15.12 c 3.564,-6.277 9.498,-12.261 13.679,-18.72 l -14.159,0 c -4.264,5.336 -7.401,11.799 -11.52,17.28 l 0,-17.28 -11.76,0 c 0.16,15.04 -0.32,30.72 0.24,45.361 11.083,-0.342 24.11,1.735 30,-4.561 6.023,-6.439 3.102,-21.347 -6.48,-22.08"
         style="fill:#ffffff;fill-opacity:1;fill-rule:evenodd;stroke:none"
         id="path3408"
         inkscape:connector-curvature="0" /></g></g></svg>